<svg id="sadora"
  xmlns="http://www.w3.org/2000/svg" width="20000" height="20000" viewBox="0 0 12500 12500">
  <defs>
    <style>
      .cls-1 {
        fill-rule: evenodd;
      }
    </style>
  </defs>
  <path id="sadora_handmade" class="cls-1" d="M1979.28,5593.35c0-178.77,153.6-326.37,360.61-326.37,242.06,0,407.09,212.25,546.67,524.54l28.25-5.43-78.44-408.42c-123.3-62.42-303.48-135.37-457.08-135.37-316.3,0-544.15,178.77-544.15,419.96,0,544.8,962.92,387.61,962.92,852.8,0,195.95-155.86,339.26-372.16,339.26-265.17,0-472.2-220.92-609.33-576.18l-28.25,5.43,78.44,408.42S2072.88,6879,2402.59,6879c330.31,0,539.6-183.07,539.6-439.34C2942.19,5879.78,1979.28,6030.49,1979.28,5593.35Zm2443.64,1193.7a186.568,186.568,0,0,1-68.17-87.98L3825.68,5272.31H3478.89v28.78c74.1,0,129.62,60.62,129.62,129.2a133.508,133.508,0,0,1-7.96,44.7L3153.94,6691.32a196.676,196.676,0,0,1-184.72,129v28.78h386.59v-28.78a126.383,126.383,0,0,1-38.17-5.92,124.486,124.486,0,0,1-34.49-17.35,98.32,98.32,0,0,1-12.25-149.41l524.58-524.58c46.13-46.13,124.51-28.98,147.16,32.05l172.28,461.91c36.74,98.59-36.13,203.3-141.25,203.3v28.78h555.39v-28.78A185.461,185.461,0,0,1,4422.92,6787.05Zm-600.09-731.96-508.66,508.66c-31.02,31.02-82.26-1.84-67.15-42.87L3659.74,5395.8l193.5,519.27A132.363,132.363,0,0,1,3822.83,6055.09Zm1323.63-783.53-246.17.31-344.6.3v28.21a181.09,181.09,0,0,1,181.09,181.1V6638.91A181.094,181.094,0,0,1,4555.69,6820v28.52l344.6,0.3,246.17,0.3c435.91,1.67,839.97-349.76,841.49-785.36v-6.83C5986.43,5621.32,5582.37,5269.89,5146.46,5271.56ZM5824.44,6063c-0.91,217.95-90.09,414.52-233.27,556.64l-2.88,2.73c-129.53,127.86-354.01,199.3-535.87,198.54l-19.87-.15a132.319,132.319,0,0,1-131.96-132.26V5433.09c-0.45-73.41,58.86-132.86,131.96-133.16l19.87-.16c181.86-.6,406.34,70.68,535.87,198.54l2.88,2.73c143.18,142.12,232.36,338.7,233.27,556.65V6063Zm1850-429.96c-78.72-119.81-193.47-206.78-306.12-281.23-35.64-23.05-73.92-42.01-113.76-57.63-175.65-68.84-371.45-68.44-547.8-1.47-41.85,15.89-81.91,35.32-118.68,59.1-112.64,74.46-227.39,161.42-306.12,281.23-78.55,119.1-123.36,280.34-124.07,427.66,0.71,147.31,45.52,308.73,124.07,427.65,78.73,119.99,193.48,206.95,306.12,281.24,36.77,23.77,76.83,43.22,118.68,59.14,176.33,67.06,372.17,67.46,547.8-1.48,39.84-15.64,78.12-34.62,113.76-57.66,112.65-74.29,227.4-161.25,306.12-281.24,78.56-118.92,123.37-280.34,124.07-427.65C7797.81,5913.38,7753,5752.14,7674.44,5633.04ZM7542.65,6418c-43.93,115.89-106.49,226.24-208.94,304.63q-6.09,4.5-12.36,8.91c-205.49,144.35-480.8,144.35-686.29,0q-6.285-4.41-12.36-8.91c-102.45-78.39-165.01-188.74-208.94-304.63-42.35-117.5-60.8-237.49-60.8-357.3s18.45-239.63,60.8-357.13c43.93-116.06,106.49-226.41,208.94-304.8q6.075-4.515,12.36-8.92c205.49-144.34,480.8-144.34,686.29,0q6.285,4.41,12.36,8.92c102.45,78.39,165.01,188.74,208.94,304.8,42.35,117.5,60.8,237.31,60.8,357.13S7585,6300.5,7542.65,6418Zm1056.83-344.13c165.13-.82,324.95-81.65,408.64-223.51,38.58-65.72,60.42-139.41,54.91-213.71-15.31-203.3-191.46-356.79-394.76-364.55H7862.83v28.78a180.51,180.51,0,0,1,180.44,180.44V6639.47a180.582,180.582,0,0,1-180.64,180.64v28.78h525.59v-28.78h-0.81a180.584,180.584,0,0,1-180.65-180.64V6073.26a264.359,264.359,0,0,1,176.77,67.97L8982.2,6720.1c39.19,35.31,14.08,100.22-38.58,100.22v28.78h395.37v-28.78a82.706,82.706,0,0,1-55.72-21.44l-759.92-725.62Zm-392.31-27.35V5300.88h311.69c189.01,0,359.65,136.35,379.04,324.96a338.538,338.538,0,0,1,2.45,41.02,385.39,385.39,0,0,1-59.81,206.98c-69.81,112.46-200.03,172.88-332.71,172.88H8207.17v-0.2Zm2488.13,740.53a186.875,186.875,0,0,1-68.2-87.98l-529-1426.76H9751.29v28.78c74.09,0,129.61,60.62,129.61,129.2a133.259,133.259,0,0,1-7.96,44.7l-446.6,1216.33a196.679,196.679,0,0,1-184.73,129v28.78h386.6v-28.78a126.334,126.334,0,0,1-38.17-5.92,124.68,124.68,0,0,1-34.5-17.35,98.309,98.309,0,0,1-12.24-149.41l524.6-524.58c46.1-46.13,124.5-28.98,147.1,32.05l172.3,461.91c36.8,98.59-36.1,203.3-141.2,203.3v28.78h555.4v-28.78A185.556,185.556,0,0,1,10695.3,6787.05Zm-600.1-731.96-508.63,508.66c-31.03,31.02-82.26-1.84-67.16-42.87L9932.14,5395.8l193.46,519.27A132.185,132.185,0,0,1,10095.2,6055.09ZM4158.15,7608.83q25.485-23.235,51.37-36,25.875-12.75,51.38-12.75,33.75,0,50.25,18.37,16.485,18.39,16.5,58.88v226.5h66v-243a141.565,141.565,0,0,0-7.13-45.75,103.278,103.278,0,0,0-21-36.38q-13.89-15.36-35.62-24-21.765-8.61-51-8.62-36,0-66,14.25a235.527,235.527,0,0,0-54.75,36v-225h-66v532.5h66v-255Zm517.5-18q32.235-18,57.37-24.38,25.125-6.36,44.63-6.37,32.985,0,52.5,13.87,19.485,13.89,19.5,52.13v30h-67.5q-72,0-115.88,28.87-43.875,28.89-43.87,84.38,0,23.25,8.62,42a89.625,89.625,0,0,0,24.38,31.87,112.858,112.858,0,0,0,37.12,20.25,147.461,147.461,0,0,0,46.88,7.13q33.75,0,61.5-10.5t51-35.25h1.5l8.25,39h54.75v-229.5q0-36.735-9.75-61.13-9.765-24.36-27.38-39.37t-42-21.38q-24.375-6.36-53.62-6.37a267.078,267.078,0,0,0-36,2.25,226.355,226.355,0,0,0-63.75,18.37q-15.75,7.14-33.75,16.13Zm174.75,182.25q-19.515,25.5-45,37.12-25.515,11.64-50.25,11.63a109.756,109.756,0,0,1-24.38-2.63,56.545,56.545,0,0,1-20.25-8.62,42.356,42.356,0,0,1-13.87-16.88q-5.265-10.86-5.25-26.62,0-26.25,23.62-44.63,23.625-18.36,79.88-19.87l55.5-1.5v72Zm378.75-165.75q45.735-47.25,98.25-47.25,34.485,0,51.37,19.12t16.88,51.38v233.25h66v-243q0-54-30.75-84.38t-84.75-30.37q-37.515,0-66.38,13.87-28.875,13.89-55.12,40.13l-9.75-48.75h-51.75v352.5h66v-256.5Zm718.5-66.75a130.956,130.956,0,0,0-44.63-25.88,162.028,162.028,0,0,0-52.87-8.62q-37.515,0-66.75,12.75a133.9,133.9,0,0,0-49.5,36.75q-20.25,24.015-31.13,57.75-10.875,33.75-10.87,75,0,46.515,12.75,80.62,12.735,34.14,33.75,56.63a138.448,138.448,0,0,0,47.62,33.75,140.233,140.233,0,0,0,55.13,11.25q36,0,59.62-10.88,23.625-10.86,46.88-34.87h2.25l8.25,39h55.5v-532.5h-66v209.25Zm0,230.25q-35.265,48.765-91.5,48.75a90.247,90.247,0,0,1-35.63-7.5q-17.625-7.485-31.5-23.63-13.89-16.11-22.12-41.25-8.265-25.11-8.25-61.12,0-34.485,9-59.25,9-24.75,23.62-40.5a87.318,87.318,0,0,1,33.75-22.88,112.164,112.164,0,0,1,39.38-7.12q47.985,0,83.25,39.75v174.75Zm384-162.75q43.485-47.985,94.5-48,34.485,0,49.5,18.75,14.985,18.75,15,54v231h66v-250.5a39.01,39.01,0,0,0-.75-7.5q44.235-45.735,95.25-45.75,34.485,0,49.5,18.75,14.985,18.75,15,54v231h66v-243q0-54-27.38-84.38t-81.37-30.37q-38.25,0-69.75,15-31.5,15.015-57.75,42.75-12.015-27-36-42.38-24.015-15.36-61.5-15.37-39.765,0-68.25,14.62-28.515,14.625-53.25,39.38l-9.75-48.75h-51v352.5h66V7608.08Zm731.25-17.25q32.235-18,57.37-24.38,25.125-6.36,44.63-6.37,32.985,0,52.5,13.87,19.485,13.89,19.5,52.13v30h-67.5q-72,0-115.88,28.87-43.875,28.89-43.87,84.38,0,23.25,8.62,42a89.625,89.625,0,0,0,24.38,31.87,112.858,112.858,0,0,0,37.12,20.25,147.461,147.461,0,0,0,46.88,7.13q33.75,0,61.5-10.5t51-35.25h1.5l8.25,39h54.75v-229.5q0-36.735-9.75-61.13-9.765-24.36-27.38-39.37t-42-21.38q-24.375-6.36-53.62-6.37a267.078,267.078,0,0,0-36,2.25,226.355,226.355,0,0,0-63.75,18.37q-15.75,7.14-33.75,16.13Zm174.75,182.25q-19.515,25.5-45,37.12-25.515,11.64-50.25,11.63a109.756,109.756,0,0,1-24.38-2.63,56.545,56.545,0,0,1-20.25-8.62,42.356,42.356,0,0,1-13.87-16.88q-5.265-10.86-5.25-26.62,0-26.25,23.62-44.63,23.625-18.36,79.88-19.87l55.5-1.5v72Zm546.75-232.5a130.956,130.956,0,0,0-44.63-25.88,162.028,162.028,0,0,0-52.87-8.62q-37.515,0-66.75,12.75a133.9,133.9,0,0,0-49.5,36.75q-20.25,24.015-31.13,57.75-10.875,33.75-10.87,75,0,46.515,12.75,80.62,12.735,34.14,33.75,56.63a138.448,138.448,0,0,0,47.62,33.75,140.233,140.233,0,0,0,55.13,11.25q36,0,59.62-10.88,23.625-10.86,46.88-34.87h2.25l8.25,39h55.5v-532.5h-66v209.25Zm0,230.25q-35.265,48.765-91.5,48.75a90.247,90.247,0,0,1-35.63-7.5q-17.625-7.485-31.5-23.63-13.89-16.11-22.12-41.25-8.265-25.11-8.25-61.12,0-34.485,9-59.25,9-24.75,23.62-40.5a87.318,87.318,0,0,1,33.75-22.88,112.164,112.164,0,0,1,39.38-7.12q47.985,0,83.25,39.75v174.75Zm618-110.25q0-34.485-10.5-63-10.515-28.5-30-48.75a136.012,136.012,0,0,0-46.88-31.5q-27.39-11.25-61.12-11.25-39.765,0-71.63,13.12a156.126,156.126,0,0,0-54.37,36.75q-22.5,23.625-34.88,57.38t-12.37,75q0,48,14.62,82.5t40.13,56.62a163.471,163.471,0,0,0,58.87,32.63q33.36,10.485,71.63,10.5a319.8,319.8,0,0,0,63.37-6q29.625-6,51.38-15.75l-13.5-48.75a283.791,283.791,0,0,1-48.38,15q-22.125,4.5-50.62,4.5-54.765,0-86.63-31.5-31.89-31.5-31.87-90v-3H8402.4v-34.5Zm-251.25-11.25q5.985-42.75,31.87-69t67.13-26.25q22.5,0,38.25,7.5a71.924,71.924,0,0,1,25.87,20.25,85.227,85.227,0,0,1,15,29.62,130.589,130.589,0,0,1,4.88,36.38Z"/>
</svg>
